{
	"asset":{
		"generator":"Khronos glTF Blender I/O v4.4.56",
		"version":"2.0"
	},
	"scene":0,
	"scenes":[
		{
			"name":"Scene",
			"nodes":[
				0,
				1,
				2,
				3,
				4
			]
		}
	],
	"nodes":[
		{
			"mesh":0,
			"name":"2_Plane",
			"scale":[
				12.600000381469727,
				12.600000381469727,
				12.600000381469727
			]
		},
		{
			"mesh":1,
			"name":"0_Cube",
			"translation":[
				-0.2712584137916565,
				0.49999991059303284,
				1.2525511980056763
			]
		},
		{
			"mesh":2,
			"name":"3_Icosphere",
			"translation":[
				1.7419459819793701,
				1.0243644714355469,
				2.1387948989868164
			]
		},
		{
			"mesh":3,
			"name":"3_Cone",
			"translation":[
				-0.5081532001495361,
				1,
				-1.029860019683838
			]
		},
		{
			"mesh":4,
			"name":"1_Cube.001",
			"translation":[
				1.7140541076660156,
				0.7500000596046448,
				-1.5783336162567139
			]
		}
	],
	"materials":[
		{
			"doubleSided":true,
			"name":"Material",
			"normalTexture":{
				"index":0
			},
			"pbrMetallicRoughness":{
				"baseColorTexture":{
					"index":1
				},
				"metallicFactor":0,
				"roughnessFactor":0.5
			}
		},
		{
			"doubleSided":true,
			"name":"Material.001",
			"normalTexture":{
				"index":2
			},
			"pbrMetallicRoughness":{
				"baseColorTexture":{
					"index":3
				},
				"metallicFactor":0,
				"roughnessFactor":0.5
			}
		},
		{
			"doubleSided":true,
			"name":"Material.002",
			"normalTexture":{
				"index":4
			},
			"pbrMetallicRoughness":{
				"baseColorTexture":{
					"index":5
				},
				"metallicFactor":0,
				"roughnessFactor":0.5
			}
		}
	],
	"meshes":[
		{
			"name":"Plane",
			"primitives":[
				{
					"attributes":{
						"POSITION":0,
						"NORMAL":1,
						"TEXCOORD_0":2,
						"TANGENT":3
					},
					"indices":4,
					"material":0
				}
			]
		},
		{
			"name":"Cube.001",
			"primitives":[
				{
					"attributes":{
						"POSITION":5,
						"NORMAL":6,
						"TEXCOORD_0":7,
						"TANGENT":8
					},
					"indices":9,
					"material":1
				}
			]
		},
		{
			"name":"Icosphere",
			"primitives":[
				{
					"attributes":{
						"POSITION":10,
						"NORMAL":11,
						"TEXCOORD_0":12,
						"TANGENT":13
					},
					"indices":14,
					"material":2
				}
			]
		},
		{
			"name":"Cone",
			"primitives":[
				{
					"attributes":{
						"POSITION":15,
						"NORMAL":16,
						"TEXCOORD_0":17,
						"TANGENT":18
					},
					"indices":19,
					"material":2
				}
			]
		},
		{
			"name":"Cube.002",
			"primitives":[
				{
					"attributes":{
						"POSITION":20,
						"NORMAL":21,
						"TEXCOORD_0":22,
						"TANGENT":23
					},
					"indices":9,
					"material":1
				}
			]
		}
	],
	"textures":[
		{
			"sampler":0,
			"source":0
		},
		{
			"sampler":0,
			"source":1
		},
		{
			"sampler":0,
			"source":2
		},
		{
			"sampler":0,
			"source":3
		},
		{
			"sampler":0,
			"source":4
		},
		{
			"sampler":0,
			"source":5
		}
	],
	"images":[
		{
			"mimeType":"image/png",
			"name":"floor_tiles_06_nor_2k",
			"uri":"floor_tiles_06_nor_2k.png"
		},
		{
			"mimeType":"image/png",
			"name":"floor_tiles_06_diff_2k",
			"uri":"floor_tiles_06_diff_2k.png"
		},
		{
			"mimeType":"image/jpeg",
			"name":"Brick_Wall_014_NORM",
			"uri":"Brick_Wall_014_NORM.jpg"
		},
		{
			"mimeType":"image/jpeg",
			"name":"Brick_Wall_014_COLOR",
			"uri":"Brick_Wall_014_COLOR.jpg"
		},
		{
			"mimeType":"image/jpeg",
			"name":"Granite_001_NORM",
			"uri":"Granite_001_NORM.jpg"
		},
		{
			"mimeType":"image/jpeg",
			"name":"Granite_001_COLOR",
			"uri":"Granite_001_COLOR.jpg"
		}
	],
	"accessors":[
		{
			"bufferView":0,
			"componentType":5126,
			"count":24,
			"max":[
				1,
				9.999999747378752e-06,
				1
			],
			"min":[
				-1,
				-0.10000000149011612,
				-1
			],
			"type":"VEC3"
		},
		{
			"bufferView":1,
			"componentType":5126,
			"count":24,
			"type":"VEC3"
		},
		{
			"bufferView":2,
			"componentType":5126,
			"count":24,
			"type":"VEC2"
		},
		{
			"bufferView":3,
			"componentType":5126,
			"count":24,
			"type":"VEC4"
		},
		{
			"bufferView":4,
			"componentType":5123,
			"count":36,
			"type":"SCALAR"
		},
		{
			"bufferView":5,
			"componentType":5126,
			"count":24,
			"max":[
				0.5,
				0.5,
				0.5
			],
			"min":[
				-0.5,
				-0.5,
				-0.5
			],
			"type":"VEC3"
		},
		{
			"bufferView":6,
			"componentType":5126,
			"count":24,
			"type":"VEC3"
		},
		{
			"bufferView":7,
			"componentType":5126,
			"count":24,
			"type":"VEC2"
		},
		{
			"bufferView":8,
			"componentType":5126,
			"count":24,
			"type":"VEC4"
		},
		{
			"bufferView":9,
			"componentType":5123,
			"count":36,
			"type":"SCALAR"
		},
		{
			"bufferView":10,
			"componentType":5126,
			"count":60,
			"max":[
				0.8944249749183655,
				1,
				0.8506399989128113
			],
			"min":[
				-0.8944249749183655,
				-1,
				-0.8506399989128113
			],
			"type":"VEC3"
		},
		{
			"bufferView":11,
			"componentType":5126,
			"count":60,
			"type":"VEC3"
		},
		{
			"bufferView":12,
			"componentType":5126,
			"count":60,
			"type":"VEC2"
		},
		{
			"bufferView":13,
			"componentType":5126,
			"count":60,
			"type":"VEC4"
		},
		{
			"bufferView":14,
			"componentType":5123,
			"count":60,
			"type":"SCALAR"
		},
		{
			"bufferView":15,
			"componentType":5126,
			"count":48,
			"max":[
				1,
				1,
				1
			],
			"min":[
				-1,
				-1,
				-1
			],
			"type":"VEC3"
		},
		{
			"bufferView":16,
			"componentType":5126,
			"count":48,
			"type":"VEC3"
		},
		{
			"bufferView":17,
			"componentType":5126,
			"count":48,
			"type":"VEC2"
		},
		{
			"bufferView":18,
			"componentType":5126,
			"count":48,
			"type":"VEC4"
		},
		{
			"bufferView":19,
			"componentType":5123,
			"count":66,
			"type":"SCALAR"
		},
		{
			"bufferView":20,
			"componentType":5126,
			"count":24,
			"max":[
				0.75,
				0.75,
				0.75
			],
			"min":[
				-0.75,
				-0.75,
				-0.75
			],
			"type":"VEC3"
		},
		{
			"bufferView":21,
			"componentType":5126,
			"count":24,
			"type":"VEC3"
		},
		{
			"bufferView":22,
			"componentType":5126,
			"count":24,
			"type":"VEC2"
		},
		{
			"bufferView":23,
			"componentType":5126,
			"count":24,
			"type":"VEC4"
		}
	],
	"bufferViews":[
		{
			"buffer":0,
			"byteLength":288,
			"byteOffset":0,
			"target":34962
		},
		{
			"buffer":0,
			"byteLength":288,
			"byteOffset":288,
			"target":34962
		},
		{
			"buffer":0,
			"byteLength":192,
			"byteOffset":576,
			"target":34962
		},
		{
			"buffer":0,
			"byteLength":384,
			"byteOffset":768,
			"target":34962
		},
		{
			"buffer":0,
			"byteLength":72,
			"byteOffset":1152,
			"target":34963
		},
		{
			"buffer":0,
			"byteLength":288,
			"byteOffset":1224,
			"target":34962
		},
		{
			"buffer":0,
			"byteLength":288,
			"byteOffset":1512,
			"target":34962
		},
		{
			"buffer":0,
			"byteLength":192,
			"byteOffset":1800,
			"target":34962
		},
		{
			"buffer":0,
			"byteLength":384,
			"byteOffset":1992,
			"target":34962
		},
		{
			"buffer":0,
			"byteLength":72,
			"byteOffset":2376,
			"target":34963
		},
		{
			"buffer":0,
			"byteLength":720,
			"byteOffset":2448,
			"target":34962
		},
		{
			"buffer":0,
			"byteLength":720,
			"byteOffset":3168,
			"target":34962
		},
		{
			"buffer":0,
			"byteLength":480,
			"byteOffset":3888,
			"target":34962
		},
		{
			"buffer":0,
			"byteLength":960,
			"byteOffset":4368,
			"target":34962
		},
		{
			"buffer":0,
			"byteLength":120,
			"byteOffset":5328,
			"target":34963
		},
		{
			"buffer":0,
			"byteLength":576,
			"byteOffset":5448,
			"target":34962
		},
		{
			"buffer":0,
			"byteLength":576,
			"byteOffset":6024,
			"target":34962
		},
		{
			"buffer":0,
			"byteLength":384,
			"byteOffset":6600,
			"target":34962
		},
		{
			"buffer":0,
			"byteLength":768,
			"byteOffset":6984,
			"target":34962
		},
		{
			"buffer":0,
			"byteLength":132,
			"byteOffset":7752,
			"target":34963
		},
		{
			"buffer":0,
			"byteLength":288,
			"byteOffset":7884,
			"target":34962
		},
		{
			"buffer":0,
			"byteLength":288,
			"byteOffset":8172,
			"target":34962
		},
		{
			"buffer":0,
			"byteLength":192,
			"byteOffset":8460,
			"target":34962
		},
		{
			"buffer":0,
			"byteLength":384,
			"byteOffset":8652,
			"target":34962
		}
	],
	"samplers":[
		{
			"magFilter":9729,
			"minFilter":9987
		}
	],
	"buffers":[
		{
			"byteLength":9036,
			"uri":"loonar-test-scene.bin"
		}
	]
}
