# Blender 4.4.0
# www.blender.org
o Cube
v 4.300000 1.000000 -4.300000
v 4.300000 -1.075000 -4.300000
v 4.300000 1.000000 4.300000
v 4.300000 -1.075000 4.300000
v -4.300000 1.000000 -4.300000
v -4.300000 -1.075000 -4.300000
v -4.300000 1.000000 4.300000
v -4.300000 -1.075000 4.300000
v 3.700000 1.000000 -3.700000
v 3.700000 -0.925000 -3.700000
v 3.700000 1.000000 3.700000
v 3.700000 -0.925000 3.700000
v -3.700000 1.000000 -3.700000
v -3.700000 -0.925000 -3.700000
v -3.700000 1.000000 3.700000
v -3.700000 -0.925000 3.700000
vn -0.0000 -0.0000 1.0000
vn -1.0000 -0.0000 -0.0000
vn -0.0000 -1.0000 -0.0000
vn 1.0000 -0.0000 -0.0000
vn -0.0000 -0.0000 -1.0000
vn -0.0000 1.0000 -0.0000
vt 0.414458 0.771084
vt 0.514458 0.356626
vt 0.514458 0.771084
vt 0.514458 0.771084
vt 0.614458 0.356626
vt 0.614458 0.771084
vt 0.414458 0.414458
vt 0.000000 0.000000
vt 0.414458 0.000000
vt 0.714458 0.356626
vt 0.714458 0.771084
vt 0.714458 0.771084
vt 0.814458 0.356626
vt 0.814458 0.771084
vt 0.863855 0.356626
vt 0.771084 0.000000
vt 0.863855 0.000000
vt 0.907229 0.713253
vt 0.907229 0.356626
vt 0.414458 0.356626
vt 0.771084 0.000000
vt 0.771084 0.356626
vt 0.956626 0.356626
vt 0.863855 -0.000000
vt 0.956626 0.000000
vt 1.000000 0.713253
vt 0.907229 0.356626
vt 1.000000 0.356626
vt 0.000000 0.414458
vt 0.028916 0.800000
vt 0.000000 0.828915
vt 0.414458 0.414458
vt 0.028916 0.443373
vt 0.385542 0.800000
vt 0.414458 0.828915
vt 0.385542 0.443373
vt 0.414458 0.356626
vt 0.000000 0.414458
vt 0.614458 0.356626
vt 0.771084 0.356626
vt 0.814458 0.713253
vt 0.414458 -0.000000
vt 0.863855 0.356626
vt 0.907229 0.713253
s 0
f 3/1/1 8/2/1 4/3/1
f 7/4/2 6/5/2 8/6/2
f 2/7/3 8/8/3 6/9/3
f 1/6/4 4/10/4 2/11/4
f 5/12/5 2/13/5 6/14/5
f 16/15/5 11/16/5 12/17/5
f 14/18/4 15/13/4 16/19/4
f 16/20/6 10/21/6 14/22/6
f 12/23/2 9/24/2 10/25/2
f 10/26/1 13/27/1 14/28/1
f 3/29/6 15/30/6 7/31/6
f 1/32/6 11/33/6 3/29/6
f 7/31/6 13/34/6 5/35/6
f 5/35/6 9/36/6 1/32/6
f 3/1/1 7/37/1 8/2/1
f 7/4/2 5/2/2 6/5/2
f 2/7/3 4/38/3 8/8/3
f 1/6/4 3/39/4 4/10/4
f 5/12/5 1/10/5 2/13/5
f 16/15/5 15/40/5 11/16/5
f 14/18/4 13/41/4 15/13/4
f 16/20/6 12/42/6 10/21/6
f 12/23/2 11/43/2 9/24/2
f 10/26/1 9/44/1 13/27/1
f 3/29/6 11/33/6 15/30/6
f 1/32/6 9/36/6 11/33/6
f 7/31/6 15/30/6 13/34/6
f 5/35/6 13/34/6 9/36/6
